<svg width="580" height="400" xmlns="http://www.w3.org/2000/svg">
 <!-- Created with Method Draw - http://github.com/duopixel/Method-Draw/ -->

 <g>
  <title>background</title>
  <rect fill="#fff" id="canvas_background" height="402" width="582" y="-1" x="-1"/>
  <g display="none" overflow="visible" y="0" x="0" height="100%" width="100%" id="canvasGrid">
   <rect fill="url(#gridpattern)" stroke-width="0" y="0" x="0" height="100%" width="100%"/>
  </g>
 </g>
 <g>
  <title>Layer 1</title>
  <ellipse ry="100" rx="100" id="svg_1" cy="217" cx="267" stroke-width="1.5" stroke="#0f0e0e" fill="#ff8b0f"/>
  <path id="svg_5" d="m334.197297,140.065955c-1.209059,3.658096 -2.055593,5.578264 -6.168482,7.496003c-0.72678,0.522668 0.241163,1.742855 0.72678,1.567868c3.627273,-2.090468 4.473782,-3.83558 6.168482,-7.671058c0.846533,4.883106 2.780739,8.020997 6.047095,9.938736l0.242796,-1.047594c4.475439,3.487933 7.861548,4.185622 10.763697,3.31298c2.782372,-0.872573 6.047095,-1.567799 8.709714,-1.045131c-1.693066,-1.91791 -2.662619,-4.185588 -3.023559,-6.97354c2.780763,-4.185451 8.224121,-2.615325 10.885107,-5.055767l-0.60537,-1.920134c5.805932,-2.787986 10.76533,-7.321119 17.658959,-5.925877l-11.369067,-11.856578l0.241163,-1.570228c-3.386109,-3.660491 -7.256178,-4.533133 -11.61184,-2.090365c1.451879,-6.103293 0,-12.726893 3.993088,-17.434842c-0.96792,-2.615394 0,-6.275919 1.693066,-9.588899c0.24282,-6.275885 1.450246,-11.855414 3.627273,-16.911215c-3.507496,3.31298 -7.013382,6.275885 -10.642287,8.892476l-0.60537,-1.918936c-1.450246,3.314075 -3.507519,5.754482 -6.289892,7.147295l-0.48396,-1.917739c-3.750316,5.405706 -8.224121,8.193658 -11.006517,16.042029c0.846533,-7.673384 -0.726756,-15.169455 -2.903759,-21.271585l-0.846533,1.22135c-1.571656,-7.497234 -7.134792,-12.379177 -10.642287,-18.481273c1.450246,16.737255 -2.784029,18.828886 -2.66101,28.070172l-1.453512,0.172558c2.057249,9.416239 -0.725147,13.774385 0.60537,20.225291c-3.386109,-2.440441 -7.741795,-0.697655 -10.643944,-4.533167c3.507496,8.0211 4.718235,17.782557 10.643944,24.408415l-0.846533,0.522668c2.177003,3.485538 4.959399,6.450906 9.797387,8.196087z" stroke-opacity="null" stroke-width="1.5" stroke="#000" fill="#85c906"/>
 </g>
</svg>